:version 1.10
:name ASF
:units
  mass 1
  length 1
  angle deg
:documentation
  ASF file generated by Kaydara
:root
  axis xyz
  order  tx ty tz rx ry rz
  position 0 0 0
  orientation 0 0 0
:bonedata
  begin
    id 1
    name SpineDummy
    direction 0.999998 -0.00179978 1.38929e-006
    length 3.60008
    axis 0 0 0 xyz
  end
  begin
    id 2
    name Spine
    direction 0.964365 0.262802 0.0305839
    length 8.13928
    axis 1.33928 -1.75354 15.2838 xyz
    dof rx ry rz
  end
  begin
    id 3
    name Spine1
    direction 0.811168 0.572065 0.12144
    length 7.14954
    axis 2.2224 -6.9761 35.2157 xyz
    dof rx ry rz
  end
  begin
    id 4
    name Neck
    direction 0 0 0
    length 0
    axis 2.2224 -6.9761 35.2157 xyz
    dof rx ry rz
  end
  begin
    id 5
    name HeadDummy
    direction 0.810939 0.572387 0.121455
    length 3.55534
    axis 2.2224 -6.9761 35.2157 xyz
  end
  begin
    id 6
    name Head
    direction 0.998226 -0.000232542 0.0595419
    length 7.35666
    axis -3.03688 -3.41352 -0.0133467 xyz
    dof rx ry rz
  end
  begin
    id 7
    name R_ClavicleDummy
    direction 0.531669 -0.194489 -0.824319
    length 2.49392
    axis 2.2224 -6.9761 35.2157 xyz
  end
  begin
    id 8
    name R_Clavicle
    direction -0.155119 0.0480802 -0.986725
    length 4.485
    axis -54.2764 80.6538 162.779 xyz
    dof rx ry rz
  end
  begin
    id 9
    name R_UpperArm
    direction -0.955567 0.200068 -0.216484
    length 10.1122
    axis -72.9943 12.5026 168.175 xyz
    dof rx ry rz
  end
  begin
    id 10
    name R_Forearm
    direction -0.61433 0.385743 0.688332
    length 9.39148
    axis -117.015 -43.4982 147.875 xyz
    dof rx ry rz
  end
  begin
    id 11
    name R_Hand
    direction -0.699429 0.0170333 0.714499
    length 3.66324
    axis -45.0303 -36.7097 175.478 xyz
    dof rx ry rz
  end
  begin
    id 12
    name L_ClavicleDummy
    direction 0.40287 -0.36502 0.839319
    length 2.49392
    axis 2.2224 -6.9761 35.2157 xyz
  end
  begin
    id 13
    name L_Clavicle
    direction -0.231271 -0.0726419 0.970174
    length 4.485
    axis 18.4357 -75.9711 -162.563 xyz
    dof rx ry rz
  end
  begin
    id 14
    name L_UpperArm
    direction -0.917494 0.144359 0.370629
    length 10.1122
    axis 56.0417 -21.7544 171.058 xyz
    dof rx ry rz
  end
  begin
    id 15
    name L_Forearm
    direction -0.496786 0.615074 -0.612281
    length 9.39148
    axis 89.8094 37.7546 128.927 xyz
    dof rx ry rz
  end
  begin
    id 16
    name L_Hand
    direction -0.409932 0.64962 -0.640274
    length 3.66324
    axis -0.424369 32.133 128.52 xyz
    dof rx ry rz
  end
  begin
    id 17
    name L_ThighDummy
    direction -1.84081e-006 1.87549e-006 1
    length 3.13049
    axis 0 0 0 xyz
  end
  begin
    id 18
    name L_Thigh
    direction -0.947739 0.307978 0.083308
    length 17.9961
    axis 173.219 -4.77873 161.998 xyz
    dof rx ry rz
  end
  begin
    id 19
    name L_Calf
    direction -0.728814 -0.684427 0.0197583
    length 13.3367
    axis 167.331 -1.13214 -136.799 xyz
    dof rx ry rz
  end
  begin
    id 20
    name L_Foot
    direction -0.9028 0.418719 0.0981191
    length 5.8674
    axis 163.436 11.5135 -155.37 xyz
    dof rx ry rz
  end
  begin
    id 21
    name L_Toe0
    direction -0.35341 0.886259 0.299411
    length 4.75286
    axis 169.316 -17.4222 111.74 xyz
    dof rx ry rz
  end
  begin
    id 22
    name R_ThighDummy
    direction 9.32778e-007 -8.82053e-007 -1
    length 3.13049
    axis 0 0 0 xyz
  end
  begin
    id 23
    name R_Thigh
    direction -0.925064 0.37528 -0.0585023
    length 17.9961
    axis -178.698 3.35385 157.919 xyz
    dof rx ry rz
  end
  begin
    id 24
    name R_Calf
    direction -0.68969 -0.718776 -0.0876886
    length 13.3367
    axis -160.504 5.03065 -133.817 xyz
    dof rx ry rz
  end
  begin
    id 25
    name R_Foot
    direction -0.857405 0.418858 -0.299022
    length 5.8674
    axis -161.328 4.38911 -154.413 xyz
    dof rx ry rz
  end
  begin
    id 26
    name R_Toe0
    direction -0.100745 0.952789 -0.286433
    length 4.75286
    axis 171.683 16.6445 96.0359 xyz
    dof rx ry rz
  end
:hierarchy
  begin
    root SpineDummy L_ThighDummy R_ThighDummy
    SpineDummy Spine
    Spine Spine1
    Spine1 Neck
    Neck HeadDummy R_ClavicleDummy L_ClavicleDummy
    HeadDummy Head
    R_ClavicleDummy R_Clavicle
    R_Clavicle R_UpperArm
    R_UpperArm R_Forearm
    R_Forearm R_Hand
    L_ClavicleDummy L_Clavicle
    L_Clavicle L_UpperArm
    L_UpperArm L_Forearm
    L_Forearm L_Hand
    L_ThighDummy L_Thigh
    L_Thigh L_Calf
    L_Calf L_Foot
    L_Foot L_Toe0
    R_ThighDummy R_Thigh
    R_Thigh R_Calf
    R_Calf R_Foot
    R_Foot R_Toe0
  end

:SAMPLES-PER-SECOND 30
:FULLY-SPECIFIED
:DEGREES
180
root  13.9562 30.2791 5.14755 -0.20784 15.8835 98.4932
Spine  0.59952 5.17318 2.1904
Spine1  -0.02565 -13.8613 -3.72771
Neck  3.97569e-016 0 -2.38542e-015
Head  -33.737 -2.72179 16.7731
R_Clavicle  -0.319609 5.89779 -0.865444
R_UpperArm  8.32327 8.00872 -20.644
R_Forearm  5.32495 -26.8193 20.57
R_Hand  -0.211145 13.0003 -14.8234
L_Clavicle  0.104988 -2.76831 -0.178934
L_UpperArm  1.51612 -4.76472 -42.9011
L_Forearm  6.00471 8.99659 10.526
L_Hand  0.816981 7.95803 7.11989
L_Thigh  10.0248 -8.57653 7.53163
L_Calf  8.47701 -0.052355 0.314547
L_Foot  -2.33215 -9.73165 1.41818
L_Toe0  6.16924 -1.92414 9.85003
R_Thigh  -9.79514 -1.72905 -2.407
R_Calf  24.1744 -0.715753 -2.16616
R_Foot  -0.0958345 2.60111 10.7549
R_Toe0  14.865 -2.98053 -8.14404
181
root  15.1235 29.113 4.56733 -1.37279 13.8 99.762
Spine  0.551089 3.60034 1.10922
Spine1  0.122891 -8.6915 -2.95564
Neck  3.97569e-016 0 -2.38542e-015
Head  -32.2886 -3.52043 11.8622
R_Clavicle  -0.34057 2.88306 -1.30283
R_UpperArm  8.73266 8.01679 -18.6752
R_Forearm  17.7422 -25.9655 20.305
R_Hand  -1.0223 11.0391 -19.3895
L_Clavicle  0.04612 -4.2499 0.391014
L_UpperArm  1.35027 -5.07532 -46.1012
L_Forearm  8.14599 15.0454 18.0769
L_Hand  0.647287 7.0415 6.07385
L_Thigh  10.1562 -3.52584 3.33298
L_Calf  4.21887 -0.51651 3.69358
L_Foot  -1.6812 -12.0221 14.2756
L_Toe0  4.40419 -1.10085 6.29496
R_Thigh  -8.90117 -0.427564 0.0978366
R_Calf  19.0438 -1.08001 -3.24454
R_Foot  2.86888 10.9998 23.8208
R_Toe0  5.10443 -0.620368 -13.4051
182
root  16.211 28.2723 3.85857 -1.55784 11.5981 99.9651
Spine  -0.566979 0.203302 0.532493
Spine1  -0.527992 -0.616798 -0.709618
Neck  3.97569e-016 0 -2.38542e-015
Head  -30.978 -2.62204 5.37202
R_Clavicle  -0.224706 0.249418 -1.11208
R_UpperArm  7.61542 6.35721 -15.6432
R_Forearm  29.5068 -19.5556 17.4219
R_Hand  -1.10382 7.57529 -19.7463
L_Clavicle  0.0731302 -5.06203 0.371487
L_UpperArm  -4.00797 -4.74382 -43.8213
L_Forearm  8.55368 16.469 19.9545
L_Hand  0.482442 6.35175 4.81217
L_Thigh  10.1317 0.0937451 4.66373
L_Calf  2.4844 -0.406893 2.78872
L_Foot  -1.52854 -13.3045 21.4057
L_Toe0  3.3876 -0.295014 -0.526651
R_Thigh  -6.16365 1.6087 1.32826
R_Calf  12.5247 -1.16482 -3.49794
R_Foot  3.40775 11.9049 32.4465
R_Toe0  -0.0378457 -0.253335 -16.3269
183
root  16.9879 28.1508 3.12583 -4.30596 9.51969 98.9006
Spine  -1.41924 -2.05003 0.464406
Spine1  -0.770691 4.44037 3.21885
Neck  3.97569e-016 0 -2.38542e-015
Head  -30.9138 0.117985 -1.24252
R_Clavicle  -0.04055 -3.20411 -0.586534
R_UpperArm  13.2757 2.62386 -9.67553
R_Forearm  28.0542 -9.6942 8.13218
R_Hand  -0.81584 5.68985 -16.8104
L_Clavicle  0.0883773 -2.27644 -0.238943
L_UpperArm  -10.2891 -4.35406 -33.6345
L_Forearm  1.45284 11.0834 13.0659
L_Hand  0.367358 7.07504 3.51013
L_Thigh  11.0684 2.28491 10.3514
L_Calf  -0.243618 0.748831 -5.76362
L_Foot  -2.45213 -12.999 11.7649
L_Toe0  -1.75833 0.398718 7.77799
R_Thigh  -4.84871 4.484 1.55398
R_Calf  8.78246 -0.828658 -2.38462
R_Foot  2.20019 10.0565 34.0401
R_Toe0  -1.97978 -0.270736 -17.4322
184
root  17.2351 28.5716 2.58833 -12.1583 7.0272 98.0572
Spine  -1.22591 -0.830437 -0.653777
Spine1  -0.504129 3.40113 6.359
Neck  3.97569e-016 0 -2.38542e-015
Head  -30.5634 3.65545 -4.03083
R_Clavicle  0.130527 -7.53154 -0.0561238
R_UpperArm  13.5218 -2.19337 0.725049
R_Forearm  21.8136 4.39215 -3.68571
R_Hand  -0.489227 5.87752 -13.9359
L_Clavicle  -0.139906 4.57502 0.0914876
L_UpperArm  -13.8287 -4.14102 -16.7346
L_Forearm  -9.7086 0.592896 0.67356
L_Hand  0.379566 9.16543 3.19207
L_Thigh  13.5834 3.46785 14.6993
L_Calf  -5.42313 2.20962 -16.6414
L_Foot  -1.83866 -5.17892 -3.34686
L_Toe0  -12.2388 2.95208 7.64082
R_Thigh  -6.38066 8.38566 0.828667
R_Calf  5.53774 0.0988317 0.581768
R_Foot  -0.0513172 6.3957 31.4738
R_Toe0  -1.79 -0.273237 -17.3382
185
root  17.0669 29.3766 2.23372 -22.6332 4.81437 98.6311
Spine  -0.862832 2.24336 -2.53221
Spine1  -0.67069 -0.50131 5.82956
Neck  3.97569e-016 0 -2.38542e-015
Head  -27.7204 6.87238 -0.569201
R_Clavicle  0.265478 -11.7925 0.504792
R_UpperArm  9.52593 -4.78048 15.4017
R_Forearm  14.1605 18.5927 -16.2559
R_Hand  -0.175875 7.47029 -12.2298
L_Clavicle  -0.384385 12.4428 1.35899
L_UpperArm  -17.1925 -3.33583 2.39154
L_Forearm  -14.3445 -9.89351 -11.6328
L_Hand  0.534658 10.2496 4.09636
L_Thigh  16.775 3.00055 15.0345
L_Calf  -5.13444 3.18101 -24.246
L_Foot  -1.16794 3.34704 -9.15678
L_Toe0  -8.45257 0.976408 -1.46102
R_Thigh  -9.68181 11.5871 -1.35033
R_Calf  -1.17157 2.17979 7.02021
R_Foot  -3.00926 0.872048 27.9828
R_Toe0  -1.78295 -0.270908 -17.27
186
root  16.7099 30.4725 1.83762 -31.8304 3.69857 99.7997
Spine  -0.810492 4.04033 -4.69457
Spine1  -0.83709 -2.20531 3.77915
Neck  3.97569e-016 0 -2.38542e-015
Head  -22.7956 8.7717 6.3313
R_Clavicle  0.351344 -13.9237 1.22855
R_UpperArm  7.35575 -2.64133 30.999
R_Forearm  7.28383 29.4577 -28.0078
R_Hand  0.138078 9.74313 -11.2723
L_Clavicle  -0.456299 17.3026 2.47882
L_UpperArm  -22.76 -0.84568 17.8143
L_Forearm  -10.2278 -16.8086 -20.4293
L_Hand  0.595404 9.6241 4.7146
L_Thigh  18.7409 0.168673 13.627
L_Calf  -3.59823 3.63109 -27.9336
L_Foot  0.804824 7.82492 -4.11202
L_Toe0  1.29801 -0.0589746 -6.60171
R_Thigh  -12.1288 13.1335 -4.33953
R_Calf  -7.26772 4.90464 15.6141
R_Foot  -4.97821 -4.45152 22.0364
R_Toe0  -1.67249 -0.237675 -16.1614
187
root  16.3285 31.5245 1.25722 -39.2261 3.27578 100.234
Spine  -0.6836 3.39282 -7.55427
Spine1  -0.433047 -1.00333 3.93744
Neck  3.97569e-016 0 -2.38542e-015
Head  -17.8596 9.65876 12.3929
R_Clavicle  0.375996 -13.0703 1.59102
R_UpperArm  12.153 2.42308 42.9307
R_Forearm  1.51753 35.3535 -36.1319
R_Hand  0.361695 11.8872 -11.0204
L_Clavicle  -0.459143 17.8382 2.77718
L_UpperArm  -29.5642 2.18456 27.2436
L_Forearm  -2.60481 -20.1565 -25.0915
L_Hand  0.474716 8.204 4.16597
L_Thigh  17.253 -2.65183 13.7057
L_Calf  -3.44976 3.6585 -28.181
L_Foot  2.02436 7.30586 0.881989
L_Toe0  0.505156 0.034446 -6.1361
R_Thigh  -10.9102 13.5259 -7.42513
R_Calf  -6.80904 7.11363 22.9356
R_Foot  -4.13086 -5.84569 13.76
R_Toe0  -1.2937 -0.137641 -12.2802
188
root  15.9934 32.3182 0.555921 -46.4706 3.34129 99.3137
Spine  -0.255986 1.49928 -9.97883
Spine1  0.278265 -0.30743 5.02667
Neck  3.97569e-016 0 -2.38542e-015
Head  -13.7898 10.5026 17.0682
R_Clavicle  0.341012 -10.6051 1.37146
R_UpperArm  21.8271 7.32473 50.6119
R_Forearm  -1.5205 36.3714 -37.7411
R_Hand  0.53515 13.8941 -11.0131
L_Clavicle  -0.449373 15.2935 2.70624
L_UpperArm  -35.8579 3.73592 33.4071
L_Forearm  1.9823 -20.7768 -25.9956
L_Hand  0.258249 6.67283 2.61558
L_Thigh  10.792 -4.21919 15.2032
L_Calf  -4.60606 3.15038 -24.0672
L_Foot  2.00552 6.20202 1.86038
L_Toe0  0.505156 0.034446 -6.1361
R_Thigh  -5.04562 12.1883 -10.1354
R_Calf  -1.81597 8.12834 26.4333
R_Foot  -1.69958 -3.21475 5.07126
R_Toe0  -0.682706 -0.00258643 -5.2405
189
root  15.6832 32.7643 -0.0984196 -53.7851 3.28047 97.4862
Spine  0.298284 0.485492 -10.4334
Spine1  0.709257 -1.58006 4.00241
Neck  3.97569e-016 0 -2.38542e-015
Head  -10.7113 11.1069 21.6872
R_Clavicle  0.331621 -7.65308 1.46319
R_UpperArm  31.325 11.7417 54.4444
R_Forearm  -0.643525 33.0496 -32.7413
R_Hand  0.879591 15.6581 -10.0526
L_Clavicle  -0.425737 11.4745 2.54422
L_UpperArm  -40.1625 3.39176 38.9239
L_Forearm  0.949603 -18.4807 -22.7155
L_Hand  -0.00414669 5.26657 0.147704
L_Thigh  2.40666 -4.73036 16.5487
L_Calf  -5.34753 1.86046 -14.1344
L_Foot  2.16725 6.35663 2.33653
L_Toe0  0.505156 0.034446 -6.1361
R_Thigh  1.23861 9.31148 -12.9149
R_Calf  1.25701 8.07817 26.2164
R_Foot  0.174784 0.131895 -0.994593
R_Toe0  0.394723 -0.0769843 -0.57236
190
root  15.3805 32.9036 -0.685024 -60.0901 2.48143 96.1636
Spine  0.794025 1.38879 -9.92172
Spine1  0.861502 -3.27043 2.00828
Neck  3.97569e-016 0 -2.38542e-015
Head  -8.87611 10.971 25.83
R_Clavicle  0.480736 -4.52839 2.52884
R_UpperArm  38.657 16.6821 54.6575
R_Forearm  1.14309 25.5109 -23.3828
R_Hand  1.10162 15.94 -9.0882
L_Clavicle  -0.386772 8.09134 2.29524
L_UpperArm  -41.8275 0.960792 43.3565
L_Forearm  -4.17707 -12.9569 -15.4216
L_Hand  -0.267575 4.15251 -2.99516
L_Thigh  -3.39404 -4.24294 16.986
L_Calf  -3.70718 -0.255115 1.4212
L_Foot  1.97867 5.80232 2.15359
L_Toe0  0.505156 0.034446 -6.1361
R_Thigh  3.72409 7.17887 -17.102
R_Calf  0.593955 8.02825 26.0115
R_Foot  0.184969 0.348306 -0.79029
R_Toe0  1.58128 -0.48172 -6.79968
